# xmcd CD database file
#
# Track frame offsets:
#	183
#	12188
#	25663
#	37760
#	51280
#	63775
#	78115
#	92305
#	105590
#	119185
#	133118
#	147448
#	163020
#	175073
#	187283
#	201690
#	216045
#	230385
#	242483
#	254320
#	266668
#	279440
#	292945
#	307845
#
# Disc length: 4300 seconds
#
# Revision: 0
# Processed by: cddbd v1.4PL0 Copyright (c) Steve Scherf et al.
# Submitted via: CDex 1.50beta10
#
DISCID=4e10ca18
DTITLE=Billie Holiday - The Voice Of Jazz - The Complete Recordings 1933-1940
DYEAR=1991
DGENRE=Jazz
TTITLE0=Ghost Of Yesterdays
TTITLE1=Body And Soul
TTITLE2=What Is This Going To Get Us
TTITLE3=Falling In Love Again
TTITLE4=Falling In Love Again
TTITLE5=I'm Pulling Through
TTITLE6=Tell Me More
TTITLE7=Laughing At Life
TTITLE8=Laughing At Life
TTITLE9=Time On My Hands
TTITLE10=I'm All For You
TTITLE11=I'm All For You
TTITLE12=I Hear Music
TTITLE13=I Hear Music
TTITLE14=It's The Same Old Story
TTITLE15=It's The Same Old Story
TTITLE16=It's The Same Old Story
TTITLE17=Practice Makes Perfect
TTITLE18=Practice Makes Perfect
TTITLE19=Practice Makes Perfect
TTITLE20=St. Louis Blues
TTITLE21=St. Louis Blues
TTITLE22=Loveless Love
TTITLE23=Loveless Love
EXTD=YEAR: 1991
EXTT0=
EXTT1=
EXTT2=
EXTT3=
EXTT4=
EXTT5=
EXTT6=
EXTT7=
EXTT8=
EXTT9=
EXTT10=
EXTT11=
EXTT12=
EXTT13=
EXTT14=
EXTT15=
EXTT16=
EXTT17=
EXTT18=
EXTT19=
EXTT20=
EXTT21=
EXTT22=
EXTT23=
PLAYORDER=
